<svg xmlns="http://www.w3.org/2000/svg" xmlns:xlink="http://www.w3.org/1999/xlink" xmlns:lucid="lucid" width="1681.87" height="424.67"><g transform="translate(-60 -60)" lucid:page-tab-id="0_0"><path d="M0 0h1760v1360H0z" fill="#fff"/><path d="M80 80h96v40H80zM176 80h71v40h-71zM247 80h425v40H247zM672 80h442.93v40H672z" fill="#c1e4f7"/><path d="M1114.93 80h330.66v40h-330.67zM1445.6 80h276.27v40H1445.6zM80 120h96v40H80zM176 120h71v40h-71zM247 120h52v40h-52zM299 120h49v40h-49zM348 120h39v40h-39zM387 120h52v40h-52zM439 120h65v40h-65zM504 120h55v40h-55zM559 120h60v40h-60zM619 120h53v40h-53zM672 120h76v40h-76zM748 120h50.47v40H748zM798.47 120h53.77v40h-53.77zM852.24 120h50.46v40h-50.46zM902.7 120h50.47v40H902.7z" fill="#c1e4f7"/><path d="M953.17 120h49.3v40h-49.3z" fill="#c1e4f7"/><path d="M1002.46 120h50.47v40h-50.47zM1052.93 120h62v40h-62zM1114.93 120h61v40h-61zM1175.93 120h51v40h-51zM1226.93 120h46v40h-46zM1272.93 120h34.53v40h-34.53zM1307.46 120H1342v40h-34.54zM1342 120h34.53v40H1342zM1376.53 120h34.53v40h-34.53z" fill="#c1e4f7"/><path d="M1411.06 120h34.53v40h-34.54zM1445.6 120h34.53v40h-34.54zM1480.13 120h34.53v40h-34.53zM1514.66 120h34.54v40h-34.54zM1549.2 120h34.53v40h-34.53zM1583.73 120h34.53v40h-34.53zM1618.26 120h34.54v40h-34.54zM1652.8 120h34.53v40h-34.53zM1687.33 120h34.54v40h-34.54zM80 160h96v40H80zM176 160h71v40h-71z" fill="#c1e4f7"/><path d="M247 160h867.93v40H247zM1114.93 160h606.94v40h-606.94z" fill="#fff"/><path d="M80 200h96v40H80zM176 200h71v40h-71z" fill="#c1e4f7"/><path d="M247 200h1474.87v40H247z" fill="#fff"/><path d="M80 240h96v40H80zM176 240h71v40h-71z" fill="#c1e4f7"/><path d="M247 240h1474.87v40H247z" fill="#fff"/><path d="M80 280h96v40H80zM176 280h71v40h-71z" fill="#c1e4f7"/><path d="M247 280h192v40H247zM439 280h180v40H439zM619 280h53v40h-53zM672 280h76v40h-76zM748 280h50.47v40H748zM798.47 280h53.77v40h-53.77zM852.24 280h50.46v40h-50.46zM902.7 280h50.47v40H902.7z" fill="#fff"/><path d="M953.17 280h49.3v40h-49.3z" fill="#fff"/><path d="M1002.46 280h50.47v40h-50.47zM1052.93 280h62v40h-62zM1114.93 280h606.94v40h-606.94z" fill="#fff"/><path d="M80 320h96v40H80zM176 320h71v40h-71z" fill="#c1e4f7"/><path d="M247 320h1474.87v40H247z" fill="#fff"/><path d="M80 80v40M176 80v40M247 80v40M672 80v40M1114.93 80v40M1445.6 80v40M1721.87 80v40M80 120v40M176 120v40M247 120v40M299 120v40M348 120v40M387 120v40M439 120v40M504 120v40M559 120v40M619 120v40M672 120v40M748 120v40M798.47 120v40M852.24 120v40M902.7 120v40M953.17 120v40M1002.46 120v40M1052.93 120v40M1114.93 120v40M1175.93 120v40M1226.93 120v40M1272.93 120v40M1307.46 120v40M1342 120v40M1376.53 120v40M1411.06 120v40M1445.6 120v40M1480.13 120v40M1514.66 120v40M1549.2 120v40M1583.73 120v40M1618.26 120v40M1652.8 120v40M1687.33 120v40M1721.87 120v40M80 160v40M176 160v40M247 160v40M1114.93 160v40M1721.87 160v40M80 200v40M176 200v40M247 200v40M1721.87 200v40M80 240v40M176 240v40M247 240v40M1721.87 240v40M80 280v40M176 280v40M247 280v40M439 280v40M619 280v40M672 280v40M748 280v40M798.47 280v40M852.24 280v40M902.7 280v40M953.17 280v40M1002.46 280v40M1052.93 280v40M1114.93 280v40M1721.87 280v40M80 320v40M176 320v40M247 320v40M1721.87 320v40M80 80h96M176 80h71M247 80h425M672 80h442.93M1114.93 80h330.66M1445.6 80h276.27M80 120h96M176 120h71M247 120h52M299 120h49M348 120h39M387 120h52M439 120h65M504 120h55M559 120h60M619 120h53M672 120h76M748 120h50.47M798.47 120h53.77M852.24 120h50.46M902.7 120h50.47M953.17 120h49.3M1002.46 120h50.47M1052.93 120h62M1114.93 120h61M1175.93 120h51M1226.93 120h46M1272.93 120h34.53M1307.46 120H1342M1342 120h34.53M1376.53 120h34.53M1411.06 120h34.53M1445.6 120h34.53M1480.13 120h34.53M1514.66 120h34.54M1549.2 120h34.53M1583.73 120h34.53M1618.26 120h34.54M1652.8 120h34.53M1687.33 120h34.54M80 160h96M176 160h71M247 160h867.93M1114.93 160h606.94M80 200h96M176 200h71M247 200h1474.87M80 240h96M176 240h71M247 240h1474.87M80 280h96M176 280h71M247 280h192M439 280h180M619 280h53M672 280h76M748 280h50.47M798.47 280h53.77M852.24 280h50.46M902.7 280h50.47M953.17 280h49.3M1002.46 280h50.47M1052.93 280h62M1114.93 280h606.94M80 320h96M80 360h96M176 320h71M176 360h71M247 320h1474.87M247 360h1474.87" stroke="#5e5e5e" fill="none"/><use xlink:href="#a" transform="matrix(1,0,0,1,181,85) translate(2.1666666666666714 19.444444444444443)"/><use xlink:href="#b" transform="matrix(1,0,0,1,252,85) translate(201.32716049382717 19.444444444444443)"/><use xlink:href="#c" transform="matrix(1,0,0,1,677,85) translate(210.32716049382717 19.444444444444443)"/><use xlink:href="#d" transform="matrix(1,0,0,1,1119.9251350884565,85) translate(154.32716049382717 19.444444444444443)"/><use xlink:href="#e" transform="matrix(1,0,0,1,1450.594407142913,85) translate(127.32716049382717 19.444444444444443)"/><use xlink:href="#a" transform="matrix(1,0,0,1,85,125) translate(14.666666666666671 19.444444444444443)"/><use xlink:href="#f" transform="matrix(1,0,0,1,181,125) translate(15.746913580246915 19.444444444444443)"/><use xlink:href="#g" transform="matrix(1,0,0,1,252,125) translate(14.827160493827162 19.444444444444443)"/><use xlink:href="#h" transform="matrix(1,0,0,1,304,125) translate(13.327160493827162 19.444444444444443)"/><use xlink:href="#i" transform="matrix(1,0,0,1,353,125) translate(8.327160493827162 19.444444444444443)"/><use xlink:href="#j" transform="matrix(1,0,0,1,392,125) translate(14.827160493827162 19.444444444444443)"/><use xlink:href="#e" transform="matrix(1,0,0,1,444,125) translate(21.32716049382716 19.444444444444443)"/><use xlink:href="#d" transform="matrix(1,0,0,1,509,125) translate(16.32716049382716 19.444444444444443)"/><use xlink:href="#c" transform="matrix(1,0,0,1,564,125) translate(18.82716049382716 19.444444444444443)"/><use xlink:href="#b" transform="matrix(1,0,0,1,624,125) translate(15.327160493827162 19.444444444444443)"/><use xlink:href="#g" transform="matrix(1,0,0,1,677,125) translate(26.82716049382716 19.444444444444443)"/><use xlink:href="#h" transform="matrix(1,0,0,1,753,125) translate(14.327160493827162 19.444444444444443)"/><use xlink:href="#i" transform="matrix(1,0,0,1,803.4661180592761,125) translate(15.827160493827162 19.444444444444443)"/><use xlink:href="#j" transform="matrix(1,0,0,1,857.2368986773729,125) translate(14.327160493827162 19.444444444444443)"/><use xlink:href="#e" transform="matrix(1,0,0,1,907.703016736649,125) translate(14.327160493827162 19.444444444444443)"/><use xlink:href="#d" transform="matrix(1,0,0,1,958.1691347959252,125) translate(13.827160493827162 19.444444444444443)"/><use xlink:href="#c" transform="matrix(1,0,0,1,1007.4590170291805,125) translate(14.327160493827162 19.444444444444443)"/><use xlink:href="#b" transform="matrix(1,0,0,1,1057.9251350884565,125) translate(19.82716049382716 19.444444444444443)"/><use xlink:href="#g" transform="matrix(1,0,0,1,1119.9251350884565,125) translate(19.32716049382716 19.444444444444443)"/><use xlink:href="#h" transform="matrix(1,0,0,1,1180.9251350884565,125) translate(14.327160493827162 19.444444444444443)"/><use xlink:href="#i" transform="matrix(1,0,0,1,1231.9251350884565,125) translate(11.827160493827162 19.444444444444443)"/><use xlink:href="#j" transform="matrix(1,0,0,1,1277.9251350884565,125) translate(6.327160493827161 19.444444444444443)"/><use xlink:href="#e" transform="matrix(1,0,0,1,1312.4589894993478,125) translate(6.327160493827161 19.444444444444443)"/><use xlink:href="#d" transform="matrix(1,0,0,1,1346.9928439102391,125) translate(6.327160493827161 19.444444444444443)"/><use xlink:href="#c" transform="matrix(1,0,0,1,1381.5266983211304,125) translate(6.327160493827161 19.444444444444443)"/><use xlink:href="#b" transform="matrix(1,0,0,1,1416.0605527320217,125) translate(6.327160493827161 19.444444444444443)"/><use xlink:href="#g" transform="matrix(1,0,0,1,1450.594407142913,125) translate(6.327160493827161 19.444444444444443)"/><use xlink:href="#h" transform="matrix(1,0,0,1,1485.1282615538044,125) translate(6.327160493827161 19.444444444444443)"/><use xlink:href="#i" transform="matrix(1,0,0,1,1519.6621159646957,125) translate(6.327160493827161 19.444444444444443)"/><use xlink:href="#j" transform="matrix(1,0,0,1,1554.195970375587,125) translate(6.327160493827161 19.444444444444443)"/><use xlink:href="#e" transform="matrix(1,0,0,1,1588.7298247864783,125) translate(6.327160493827161 19.444444444444443)"/><use xlink:href="#d" transform="matrix(1,0,0,1,1623.2636791973696,125) translate(6.327160493827161 19.444444444444443)"/><use xlink:href="#c" transform="matrix(1,0,0,1,1657.797533608261,125) translate(6.327160493827161 19.444444444444443)"/><use xlink:href="#b" transform="matrix(1,0,0,1,1692.3313880191522,125) translate(6.327160493827161 19.444444444444443)"/><use xlink:href="#b" transform="matrix(1,0,0,1,85,165) translate(36.82716049382716 19.444444444444443)"/><use xlink:href="#b" transform="matrix(1,0,0,1,181,165) translate(24.32716049382716 19.444444444444443)"/><use xlink:href="#k" transform="matrix(1,0,0,1,252,165) translate(370.41975308641975 19.444444444444443)"/><use xlink:href="#l" transform="matrix(1,0,0,1,252,165) translate(446.9012345679012 19.444444444444443)"/><use xlink:href="#m" transform="matrix(1,0,0,1,1119.9251350884565,165) translate(219.61111111111111 19.444444444444443)"/><use xlink:href="#l" transform="matrix(1,0,0,1,1119.9251350884565,165) translate(336.7098765432099 19.444444444444443)"/><use xlink:href="#j" transform="matrix(1,0,0,1,85,205) translate(36.82716049382716 19.444444444444443)"/><use xlink:href="#n" transform="matrix(1,0,0,1,181,205) translate(18.154320987654323 19.444444444444443)"/><use xlink:href="#o" transform="matrix(1,0,0,1,252,205) translate(640 19.444444444444443)"/><use xlink:href="#p" transform="matrix(1,0,0,1,252,205) translate(746.1728395061729 19.444444444444443)"/><use xlink:href="#q" transform="matrix(1,0,0,1,85,245) translate(36.82716049382716 19.444444444444443)"/><use xlink:href="#r" transform="matrix(1,0,0,1,181,245) translate(18.154320987654323 19.444444444444443)"/><use xlink:href="#s" transform="matrix(1,0,0,1,252,245) translate(518.641975308642 19.444444444444443)"/><use xlink:href="#t" transform="matrix(1,0,0,1,252,245) translate(693.7654320987655 19.444444444444443)"/><use xlink:href="#u" transform="matrix(1,0,0,1,252,245) translate(778.7654320987655 19.444444444444443)"/><use xlink:href="#v" transform="matrix(1,0,0,1,252,245) translate(804.6296296296297 19.444444444444443)"/><use xlink:href="#w" transform="matrix(1,0,0,1,252,245) translate(856.4197530864199 19.444444444444443)"/><use xlink:href="#x" transform="matrix(1,0,0,1,252,245) translate(905.679012345679 19.444444444444443)"/><use xlink:href="#y" transform="matrix(1,0,0,1,85,285) translate(30.654320987654323 19.444444444444443)"/><use xlink:href="#z" transform="matrix(1,0,0,1,181,285) translate(18.154320987654323 19.444444444444443)"/><use xlink:href="#A" transform="matrix(1,0,0,1,252,285) translate(35.074074074074076 19.444444444444443)"/><use xlink:href="#B" transform="matrix(1,0,0,1,252,285) translate(88.09876543209876 19.444444444444443)"/><use xlink:href="#C" transform="matrix(1,0,0,1,444,285) translate(37.53086419753086 19.444444444444443)"/><use xlink:href="#D" transform="matrix(1,0,0,1,624,285) translate(6.098765432098766 19.444444444444443)"/><use xlink:href="#E" transform="matrix(1,0,0,1,677,285) translate(6.5493827160493865 19.444444444444443)"/><use xlink:href="#F" transform="matrix(1,0,0,1,753,285) translate(-2.308641975308639 19.444444444444443)"/><use xlink:href="#G" transform="matrix(1,0,0,1,803.4661180592761,285) translate(-2.629629629629626 19.444444444444443)"/><use xlink:href="#H" transform="matrix(1,0,0,1,857.2368986773729,285) translate(-2.308641975308639 19.444444444444443)"/><use xlink:href="#I" transform="matrix(1,0,0,1,907.703016736649,285) translate(-2.308641975308639 19.444444444444443)"/><use xlink:href="#J" transform="matrix(1,0,0,1,958.1691347959252,285) translate(-2.1604938271604937 19.444444444444443)"/><g><use xlink:href="#K" transform="matrix(1,0,0,1,1007.4590170291805,285) translate(-2.308641975308639 19.444444444444443)"/></g><g><use xlink:href="#L" transform="matrix(1,0,0,1,1057.9251350884565,285) translate(8.160493827160494 19.444444444444443)"/></g><g><use xlink:href="#M" transform="matrix(1,0,0,1,1119.9251350884565,285) translate(234.42592592592592 19.444444444444443)"/><use xlink:href="#N" transform="matrix(1,0,0,1,1119.9251350884565,285) translate(319.4259259259259 19.444444444444443)"/></g><g><use xlink:href="#O" transform="matrix(1,0,0,1,85,325) translate(33.74074074074074 19.444444444444443)"/></g><g><use xlink:href="#O" transform="matrix(1,0,0,1,181,325) translate(21.24074074074074 19.444444444444443)"/></g><g><use xlink:href="#O" transform="matrix(1,0,0,1,252,325) translate(723.2407407407408 19.444444444444443)"/></g><path d="M660 386c0-3.3 2.7-6 6-6h348c3.3 0 6 2.7 6 6v72.67c0 3.3-2.7 6-6 6H666c-3.3 0-6-2.7-6-6z" stroke="#000" stroke-opacity="0" stroke-width="3" fill="#fff" fill-opacity="0"/><g><use xlink:href="#P" transform="matrix(1,0,0,1,665,385) translate(17.956790123456813 43.638888888888886)"/><use xlink:href="#Q" transform="matrix(1,0,0,1,665,385) translate(88.04320987654322 43.638888888888886)"/><use xlink:href="#R" transform="matrix(1,0,0,1,665,385) translate(227.78395061728392 43.638888888888886)"/></g><defs><path d="M140-251c80 0 125 45 125 126S219 4 139 4C58 4 15-44 15-125s44-126 125-126zm-1 214c52 0 73-35 73-88 0-50-21-86-72-86-52 0-73 35-73 86s22 88 72 88" id="S"/><path d="M190-63c-7 42-38 67-86 67-59 0-84-38-90-98-12-110 154-137 174-36l-49 2c-2-19-15-32-35-32-30 0-35 28-38 64-6 74 65 87 74 30" id="T"/><path d="M115-3C79 11 28 4 28-45v-112H4v-33h27l15-45h31v45h36v33H77v99c-1 23 16 31 38 25v30" id="U"/><path d="M185-48c-13 30-37 53-82 52C43 2 14-33 14-96s30-98 90-98c62 0 83 45 84 108H66c0 31 8 55 39 56 18 0 30-7 34-22zm-45-69c5-46-57-63-70-21-2 6-4 13-4 21h74" id="V"/><g id="a"><use transform="matrix(0.06172839506172839,0,0,0.06172839506172839,0,0)" xlink:href="#S"/><use transform="matrix(0.06172839506172839,0,0,0.06172839506172839,17.28395061728395,0)" xlink:href="#T"/><use transform="matrix(0.06172839506172839,0,0,0.06172839506172839,29.629629629629626,0)" xlink:href="#U"/><use transform="matrix(0.06172839506172839,0,0,0.06172839506172839,36.9753086419753,0)" xlink:href="#V"/><use transform="matrix(0.06172839506172839,0,0,0.06172839506172839,49.32098765432098,0)" xlink:href="#U"/></g><path d="M101-251c68 0 84 54 84 127C185-50 166 4 99 4S15-52 14-124c-1-75 17-127 87-127zm-1 216c37-5 36-46 36-89s4-89-36-89c-39 0-36 45-36 89 0 43-3 85 36 89" id="W"/><use transform="matrix(0.06172839506172839,0,0,0.06172839506172839,0,0)" xlink:href="#W" id="b"/><path d="M23 0v-37h61v-169l-59 37v-38l62-41h46v211h57V0H23" id="X"/><use transform="matrix(0.06172839506172839,0,0,0.06172839506172839,0,0)" xlink:href="#X" id="c"/><path d="M182-182c0 78-84 86-111 141h115V0H12c-6-101 99-100 120-180 1-22-12-31-33-32-23 0-32 14-35 34l-49-3c5-45 32-70 84-70 51 0 83 22 83 69" id="Y"/><use transform="matrix(0.06172839506172839,0,0,0.06172839506172839,0,0)" xlink:href="#Y" id="d"/><path d="M128-127c34 4 56 21 59 58 7 91-148 94-172 28-4-9-6-17-7-26l51-5c1 24 16 35 40 36 23 0 39-12 38-36-1-31-31-36-65-34v-40c32 2 59-3 59-33 0-20-13-33-34-33s-33 13-35 32l-50-3c6-44 37-68 86-68 50 0 83 20 83 66 0 35-22 52-53 58" id="Z"/><use transform="matrix(0.06172839506172839,0,0,0.06172839506172839,0,0)" xlink:href="#Z" id="e"/><path d="M182-130c37 4 62 22 62 59C244 23 116-4 24 0v-248c84 5 203-23 205 63 0 31-19 50-47 55zM76-148c40-3 101 13 101-30 0-44-60-28-101-31v61zm0 110c48-3 116 14 116-37 0-48-69-32-116-35v72" id="aa"/><path d="M25-224v-37h50v37H25zM25 0v-190h50V0H25" id="ab"/><g id="f"><use transform="matrix(0.06172839506172839,0,0,0.06172839506172839,0,0)" xlink:href="#aa"/><use transform="matrix(0.06172839506172839,0,0,0.06172839506172839,15.987654320987653,0)" xlink:href="#ab"/><use transform="matrix(0.06172839506172839,0,0,0.06172839506172839,22.160493827160494,0)" xlink:href="#U"/></g><path d="M52 0c1-96 47-148 87-207H15v-41h169v40c-36 62-79 113-81 208H52" id="ac"/><use transform="matrix(0.06172839506172839,0,0,0.06172839506172839,0,0)" xlink:href="#ac" id="g"/><path d="M115-159c48 0 72 30 72 78 0 54-30 85-83 85-64 0-91-50-91-122 0-98 58-163 141-120 15 8 21 24 27 44l-47 6c-5-31-48-31-61-4-7 14-11 33-11 60 9-17 28-27 53-27zM102-35c24 0 36-20 36-45s-11-43-37-43c-23 0-36 14-36 38 0 27 11 50 37 50" id="ad"/><use transform="matrix(0.06172839506172839,0,0,0.06172839506172839,0,0)" xlink:href="#ad" id="h"/><path d="M139-81c0-46-55-55-73-27H18l9-140h149v37H72l-4 63c44-38 133-4 122 66C201 21 21 35 11-62l49-4c5 18 15 30 39 30 26 0 40-18 40-45" id="ae"/><use transform="matrix(0.06172839506172839,0,0,0.06172839506172839,0,0)" xlink:href="#ae" id="i"/><path d="M165-50V0h-47v-50H5v-38l105-160h55v161h33v37h-33zm-47-37l2-116L46-87h72" id="af"/><use transform="matrix(0.06172839506172839,0,0,0.06172839506172839,0,0)" xlink:href="#af" id="j"/><path d="M185-189c-5-48-123-54-124 2 14 75 158 14 163 119 3 78-121 87-175 55-17-10-28-26-33-46l33-7c5 56 141 63 141-1 0-78-155-14-162-118-5-82 145-84 179-34 5 7 8 16 11 25" id="ag"/><path d="M100-194c62-1 85 37 85 99 1 63-27 99-86 99S16-35 15-95c0-66 28-99 85-99zM99-20c44 1 53-31 53-75 0-43-8-75-51-75s-53 32-53 75 10 74 51 75" id="ah"/><path d="M84 4C-5 8 30-112 23-190h32v120c0 31 7 50 39 49 72-2 45-101 50-169h31l1 190h-30c-1-10 1-25-2-33-11 22-28 36-60 37" id="ai"/><path d="M114-163C36-179 61-72 57 0H25l-1-190h30c1 12-1 29 2 39 6-27 23-49 58-41v29" id="aj"/><path d="M96-169c-40 0-48 33-48 73s9 75 48 75c24 0 41-14 43-38l32 2c-6 37-31 61-74 61-59 0-76-41-82-99-10-93 101-131 147-64 4 7 5 14 7 22l-32 3c-4-21-16-35-41-35" id="ak"/><path d="M100-194c63 0 86 42 84 106H49c0 40 14 67 53 68 26 1 43-12 49-29l28 8c-11 28-37 45-77 45C44 4 14-33 15-96c1-61 26-98 85-98zm52 81c6-60-76-77-97-28-3 7-6 17-6 28h103" id="al"/><g id="k"><use transform="matrix(0.06172839506172839,0,0,0.06172839506172839,0,0)" xlink:href="#ag"/><use transform="matrix(0.06172839506172839,0,0,0.06172839506172839,14.814814814814813,0)" xlink:href="#ah"/><use transform="matrix(0.06172839506172839,0,0,0.06172839506172839,27.160493827160494,0)" xlink:href="#ai"/><use transform="matrix(0.06172839506172839,0,0,0.06172839506172839,39.50617283950617,0)" xlink:href="#aj"/><use transform="matrix(0.06172839506172839,0,0,0.06172839506172839,46.85185185185185,0)" xlink:href="#ak"/><use transform="matrix(0.06172839506172839,0,0,0.06172839506172839,57.96296296296296,0)" xlink:href="#al"/></g><path d="M30-248c87 1 191-15 191 75 0 78-77 80-158 76V0H30v-248zm33 125c57 0 124 11 124-50 0-59-68-47-124-48v98" id="am"/><path d="M59-47c-2 24 18 29 38 22v24C64 9 27 4 27-40v-127H5v-23h24l9-43h21v43h35v23H59v120" id="an"/><g id="l"><use transform="matrix(0.06172839506172839,0,0,0.06172839506172839,0,0)" xlink:href="#am"/><use transform="matrix(0.06172839506172839,0,0,0.06172839506172839,14.814814814814813,0)" xlink:href="#ah"/><use transform="matrix(0.06172839506172839,0,0,0.06172839506172839,27.160493827160494,0)" xlink:href="#aj"/><use transform="matrix(0.06172839506172839,0,0,0.06172839506172839,34.50617283950617,0)" xlink:href="#an"/></g><path d="M30-248c118-7 216 8 213 122C240-48 200 0 122 0H30v-248zM63-27c89 8 146-16 146-99s-60-101-146-95v194" id="ao"/><path d="M135-143c-3-34-86-38-87 0 15 53 115 12 119 90S17 21 10-45l28-5c4 36 97 45 98 0-10-56-113-15-118-90-4-57 82-63 122-42 12 7 21 19 24 35" id="ap"/><path d="M24-231v-30h32v30H24zM24 0v-190h32V0H24" id="aq"/><path d="M117-194c89-4 53 116 60 194h-32v-121c0-31-8-49-39-48C34-167 62-67 57 0H25l-1-190h30c1 10-1 24 2 32 11-22 29-35 61-36" id="ar"/><path d="M141-36C126-15 110 5 73 4 37 3 15-17 15-53c-1-64 63-63 125-63 3-35-9-54-41-54-24 1-41 7-42 31l-33-3c5-37 33-52 76-52 45 0 72 20 72 64v82c-1 20 7 32 28 27v20c-31 9-61-2-59-35zM48-53c0 20 12 33 32 33 41-3 63-29 60-74-43 2-92-5-92 41" id="as"/><g id="m"><use transform="matrix(0.06172839506172839,0,0,0.06172839506172839,0,0)" xlink:href="#ao"/><use transform="matrix(0.06172839506172839,0,0,0.06172839506172839,15.987654320987653,0)" xlink:href="#al"/><use transform="matrix(0.06172839506172839,0,0,0.06172839506172839,28.333333333333332,0)" xlink:href="#ap"/><use transform="matrix(0.06172839506172839,0,0,0.06172839506172839,39.44444444444444,0)" xlink:href="#an"/><use transform="matrix(0.06172839506172839,0,0,0.06172839506172839,45.617283950617285,0)" xlink:href="#aq"/><use transform="matrix(0.06172839506172839,0,0,0.06172839506172839,50.49382716049383,0)" xlink:href="#ar"/><use transform="matrix(0.06172839506172839,0,0,0.06172839506172839,62.839506172839506,0)" xlink:href="#as"/><use transform="matrix(0.06172839506172839,0,0,0.06172839506172839,75.18518518518519,0)" xlink:href="#an"/><use transform="matrix(0.06172839506172839,0,0,0.06172839506172839,81.35802469135803,0)" xlink:href="#aq"/><use transform="matrix(0.06172839506172839,0,0,0.06172839506172839,86.23456790123457,0)" xlink:href="#ah"/><use transform="matrix(0.06172839506172839,0,0,0.06172839506172839,98.58024691358025,0)" xlink:href="#ar"/></g><g id="n"><use transform="matrix(0.06172839506172839,0,0,0.06172839506172839,0,0)" xlink:href="#Z"/><use transform="matrix(0.06172839506172839,0,0,0.06172839506172839,12.345679012345679,0)" xlink:href="#Y"/></g><path d="M145-31C134-9 116 4 85 4 32 4 16-35 15-94c0-59 17-99 70-100 32-1 48 14 60 33 0-11-1-24 2-32h30l-1 268h-32zM93-21c41 0 51-33 51-76s-8-73-50-73c-40 0-46 35-46 75s5 74 45 74" id="at"/><g id="o"><use transform="matrix(0.06172839506172839,0,0,0.06172839506172839,0,0)" xlink:href="#ag"/><use transform="matrix(0.06172839506172839,0,0,0.06172839506172839,14.814814814814813,0)" xlink:href="#al"/><use transform="matrix(0.06172839506172839,0,0,0.06172839506172839,27.160493827160494,0)" xlink:href="#at"/><use transform="matrix(0.06172839506172839,0,0,0.06172839506172839,39.50617283950617,0)" xlink:href="#ai"/><use transform="matrix(0.06172839506172839,0,0,0.06172839506172839,51.85185185185185,0)" xlink:href="#al"/><use transform="matrix(0.06172839506172839,0,0,0.06172839506172839,64.19753086419753,0)" xlink:href="#ar"/><use transform="matrix(0.06172839506172839,0,0,0.06172839506172839,76.54320987654322,0)" xlink:href="#ak"/><use transform="matrix(0.06172839506172839,0,0,0.06172839506172839,87.65432098765433,0)" xlink:href="#al"/></g><path d="M190 0L58-211 59 0H30v-248h39L202-35l-2-213h31V0h-41" id="au"/><path d="M210-169c-67 3-38 105-44 169h-31v-121c0-29-5-50-35-48C34-165 62-65 56 0H25l-1-190h30c1 10-1 24 2 32 10-44 99-50 107 0 11-21 27-35 58-36 85-2 47 119 55 194h-31v-121c0-29-5-49-35-48" id="av"/><path d="M115-194c53 0 69 39 70 98 0 66-23 100-70 100C84 3 66-7 56-30L54 0H23l1-261h32v101c10-23 28-34 59-34zm-8 174c40 0 45-34 45-75 0-40-5-75-45-74-42 0-51 32-51 76 0 43 10 73 51 73" id="aw"/><g id="p"><use transform="matrix(0.06172839506172839,0,0,0.06172839506172839,0,0)" xlink:href="#au"/><use transform="matrix(0.06172839506172839,0,0,0.06172839506172839,15.987654320987653,0)" xlink:href="#ai"/><use transform="matrix(0.06172839506172839,0,0,0.06172839506172839,28.333333333333332,0)" xlink:href="#av"/><use transform="matrix(0.06172839506172839,0,0,0.06172839506172839,46.79012345679012,0)" xlink:href="#aw"/><use transform="matrix(0.06172839506172839,0,0,0.06172839506172839,59.1358024691358,0)" xlink:href="#al"/><use transform="matrix(0.06172839506172839,0,0,0.06172839506172839,71.48148148148148,0)" xlink:href="#aj"/></g><path d="M138-131c27 9 52 24 51 61 0 53-36 74-89 74S11-19 11-69c0-35 22-54 51-61-78-25-46-121 38-121 51 0 83 19 83 66 0 30-18 49-45 54zm-38-16c24 0 32-13 32-36 1-23-11-34-32-34-22 0-33 12-32 34 0 22 9 36 32 36zm1 116c27 0 37-17 37-43 0-25-13-39-39-39-24 0-37 15-37 40 0 27 11 42 39 42" id="ax"/><use transform="matrix(0.06172839506172839,0,0,0.06172839506172839,0,0)" xlink:href="#ax" id="q"/><g id="r"><use transform="matrix(0.06172839506172839,0,0,0.06172839506172839,0,0)" xlink:href="#ad"/><use transform="matrix(0.06172839506172839,0,0,0.06172839506172839,12.345679012345679,0)" xlink:href="#af"/></g><path d="M205 0l-28-72H64L36 0H1l101-248h38L239 0h-34zm-38-99l-47-123c-12 45-31 82-46 123h93" id="ay"/><path d="M143 0L79-87 56-68V0H24v-261h32v163l83-92h37l-77 82L181 0h-38" id="az"/><path d="M206 0h-36l-40-164L89 0H53L-1-190h32L70-26l43-164h34l41 164 42-164h31" id="aA"/><path d="M24 0v-261h32V0H24" id="aB"/><path d="M85-194c31 0 48 13 60 33l-1-100h32l1 261h-30c-2-10 0-23-3-31C134-8 116 4 85 4 32 4 16-35 15-94c0-66 23-100 70-100zm9 24c-40 0-46 34-46 75 0 40 6 74 45 74 42 0 51-32 51-76 0-42-9-74-50-73" id="aC"/><path d="M177-190C167-65 218 103 67 71c-23-6-38-20-44-43l32-5c15 47 100 32 89-28v-30C133-14 115 1 83 1 29 1 15-40 15-95c0-56 16-97 71-98 29-1 48 16 59 35 1-10 0-23 2-32h30zM94-22c36 0 50-32 50-73 0-42-14-75-50-75-39 0-46 34-46 75s6 73 46 73" id="aD"/><g id="s"><use transform="matrix(0.06172839506172839,0,0,0.06172839506172839,0,0)" xlink:href="#ay"/><use transform="matrix(0.06172839506172839,0,0,0.06172839506172839,14.814814814814813,0)" xlink:href="#ak"/><use transform="matrix(0.06172839506172839,0,0,0.06172839506172839,25.925925925925924,0)" xlink:href="#az"/><use transform="matrix(0.06172839506172839,0,0,0.06172839506172839,37.03703703703704,0)" xlink:href="#ar"/><use transform="matrix(0.06172839506172839,0,0,0.06172839506172839,49.382716049382715,0)" xlink:href="#ah"/><use transform="matrix(0.06172839506172839,0,0,0.06172839506172839,61.72839506172839,0)" xlink:href="#aA"/><use transform="matrix(0.06172839506172839,0,0,0.06172839506172839,77.71604938271605,0)" xlink:href="#aB"/><use transform="matrix(0.06172839506172839,0,0,0.06172839506172839,82.5925925925926,0)" xlink:href="#al"/><use transform="matrix(0.06172839506172839,0,0,0.06172839506172839,94.93827160493828,0)" xlink:href="#aC"/><use transform="matrix(0.06172839506172839,0,0,0.06172839506172839,107.28395061728396,0)" xlink:href="#aD"/><use transform="matrix(0.06172839506172839,0,0,0.06172839506172839,119.62962962962965,0)" xlink:href="#av"/><use transform="matrix(0.06172839506172839,0,0,0.06172839506172839,138.08641975308643,0)" xlink:href="#al"/><use transform="matrix(0.06172839506172839,0,0,0.06172839506172839,150.4320987654321,0)" xlink:href="#ar"/><use transform="matrix(0.06172839506172839,0,0,0.06172839506172839,162.77777777777777,0)" xlink:href="#an"/></g><g id="t"><use transform="matrix(0.06172839506172839,0,0,0.06172839506172839,0,0)" xlink:href="#au"/><use transform="matrix(0.06172839506172839,0,0,0.06172839506172839,15.987654320987653,0)" xlink:href="#ai"/><use transform="matrix(0.06172839506172839,0,0,0.06172839506172839,28.333333333333332,0)" xlink:href="#av"/><use transform="matrix(0.06172839506172839,0,0,0.06172839506172839,46.79012345679012,0)" xlink:href="#aw"/><use transform="matrix(0.06172839506172839,0,0,0.06172839506172839,59.1358024691358,0)" xlink:href="#al"/><use transform="matrix(0.06172839506172839,0,0,0.06172839506172839,71.48148148148148,0)" xlink:href="#aj"/></g><path d="M87 75C49 33 22-17 22-94c0-76 28-126 65-167h31c-38 41-64 92-64 168S80 34 118 75H87" id="aE"/><path d="M33 0v-248h34V0H33" id="aF"/><path d="M101-234c-31-9-42 10-38 44h38v23H63V0H32v-167H5v-23h27c-7-52 17-82 69-68v24" id="aG"/><g id="u"><use transform="matrix(0.06172839506172839,0,0,0.06172839506172839,0,0)" xlink:href="#aE"/><use transform="matrix(0.06172839506172839,0,0,0.06172839506172839,7.345679012345679,0)" xlink:href="#aF"/><use transform="matrix(0.06172839506172839,0,0,0.06172839506172839,13.518518518518519,0)" xlink:href="#aG"/></g><path d="M212-179c-10-28-35-45-73-45-59 0-87 40-87 99 0 60 29 101 89 101 43 0 62-24 78-52l27 14C228-24 195 4 139 4 59 4 22-46 18-125c-6-104 99-153 187-111 19 9 31 26 39 46" id="aH"/><path d="M194 0L95-120 63-95V0H30v-248h33v124l119-124h40L117-140 236 0h-42" id="aI"/><g id="v"><use transform="matrix(0.06172839506172839,0,0,0.06172839506172839,0,0)" xlink:href="#ay"/><use transform="matrix(0.06172839506172839,0,0,0.06172839506172839,14.814814814814813,0)" xlink:href="#aH"/><use transform="matrix(0.06172839506172839,0,0,0.06172839506172839,30.80246913580247,0)" xlink:href="#aI"/></g><path d="M63-220v92h138v28H63V0H30v-248h175v28H63" id="aJ"/><g id="w"><use transform="matrix(0.06172839506172839,0,0,0.06172839506172839,0,0)" xlink:href="#aJ"/><use transform="matrix(0.06172839506172839,0,0,0.06172839506172839,13.518518518518517,0)" xlink:href="#aB"/><use transform="matrix(0.06172839506172839,0,0,0.06172839506172839,18.39506172839506,0)" xlink:href="#as"/><use transform="matrix(0.06172839506172839,0,0,0.06172839506172839,30.74074074074074,0)" xlink:href="#aD"/></g><path d="M33-261c38 41 65 92 65 168S71 34 33 75H2C39 34 66-17 66-93S39-220 2-261h31" id="aK"/><g id="x"><use transform="matrix(0.06172839506172839,0,0,0.06172839506172839,0,0)" xlink:href="#ag"/><use transform="matrix(0.06172839506172839,0,0,0.06172839506172839,14.814814814814813,0)" xlink:href="#al"/><use transform="matrix(0.06172839506172839,0,0,0.06172839506172839,27.160493827160494,0)" xlink:href="#an"/><use transform="matrix(0.06172839506172839,0,0,0.06172839506172839,33.333333333333336,0)" xlink:href="#aK"/></g><g id="y"><use transform="matrix(0.06172839506172839,0,0,0.06172839506172839,0,0)" xlink:href="#X"/><use transform="matrix(0.06172839506172839,0,0,0.06172839506172839,12.345679012345679,0)" xlink:href="#Y"/></g><path d="M99-251c69 0 84 53 88 123 5 99-61 162-144 118-15-8-21-25-26-45l46-6c4 31 50 33 63 7 7-15 12-36 12-60-9 18-29 28-54 28-48 0-72-32-72-82 0-55 31-83 87-83zm-1 128c24 0 37-16 37-39 0-27-10-51-37-51-25 0-35 19-35 45 0 25 10 45 35 45" id="aL"/><g id="z"><use transform="matrix(0.06172839506172839,0,0,0.06172839506172839,0,0)" xlink:href="#aL"/><use transform="matrix(0.06172839506172839,0,0,0.06172839506172839,12.345679012345679,0)" xlink:href="#ad"/></g><g id="A"><use transform="matrix(0.06172839506172839,0,0,0.06172839506172839,0,0)" xlink:href="#ao"/><use transform="matrix(0.06172839506172839,0,0,0.06172839506172839,15.987654320987653,0)" xlink:href="#as"/><use transform="matrix(0.06172839506172839,0,0,0.06172839506172839,28.333333333333332,0)" xlink:href="#an"/><use transform="matrix(0.06172839506172839,0,0,0.06172839506172839,34.50617283950617,0)" xlink:href="#as"/></g><path d="M140-251c81 0 123 46 123 126C263-46 219 4 140 4 59 4 17-45 17-125s42-126 123-126zm0 227c63 0 89-41 89-101s-29-99-89-99c-61 0-89 39-89 99S79-25 140-24" id="aM"/><g id="B"><use transform="matrix(0.06172839506172839,0,0,0.06172839506172839,0,0)" xlink:href="#aM"/><use transform="matrix(0.06172839506172839,0,0,0.06172839506172839,17.28395061728395,0)" xlink:href="#aG"/><use transform="matrix(0.06172839506172839,0,0,0.06172839506172839,23.02469135802469,0)" xlink:href="#aG"/><use transform="matrix(0.06172839506172839,0,0,0.06172839506172839,29.197530864197528,0)" xlink:href="#ap"/><use transform="matrix(0.06172839506172839,0,0,0.06172839506172839,40.30864197530864,0)" xlink:href="#al"/><use transform="matrix(0.06172839506172839,0,0,0.06172839506172839,52.654320987654316,0)" xlink:href="#an"/></g><path d="M233-177c-1 41-23 64-60 70L243 0h-38l-65-103H63V0H30v-248c88 3 205-21 203 71zM63-129c60-2 137 13 137-47 0-61-80-42-137-45v92" id="aN"/><path d="M108 0H70L1-190h34L89-25l56-165h34" id="aO"/><g id="C"><use transform="matrix(0.06172839506172839,0,0,0.06172839506172839,0,0)" xlink:href="#aN"/><use transform="matrix(0.06172839506172839,0,0,0.06172839506172839,15.987654320987653,0)" xlink:href="#al"/><use transform="matrix(0.06172839506172839,0,0,0.06172839506172839,28.333333333333332,0)" xlink:href="#ap"/><use transform="matrix(0.06172839506172839,0,0,0.06172839506172839,39.44444444444444,0)" xlink:href="#al"/><use transform="matrix(0.06172839506172839,0,0,0.06172839506172839,51.79012345679012,0)" xlink:href="#aj"/><use transform="matrix(0.06172839506172839,0,0,0.06172839506172839,59.1358024691358,0)" xlink:href="#aO"/><use transform="matrix(0.06172839506172839,0,0,0.06172839506172839,70.24691358024691,0)" xlink:href="#al"/><use transform="matrix(0.06172839506172839,0,0,0.06172839506172839,82.5925925925926,0)" xlink:href="#aC"/></g><g id="D"><use transform="matrix(0.06172839506172839,0,0,0.06172839506172839,0,0)" xlink:href="#au"/><use transform="matrix(0.06172839506172839,0,0,0.06172839506172839,15.987654320987653,0)" xlink:href="#ag"/></g><path d="M266 0h-40l-56-210L115 0H75L2-248h35L96-30l15-64 43-154h32l59 218 59-218h35" id="aP"/><g id="E"><use transform="matrix(0.06172839506172839,0,0,0.06172839506172839,0,0)" xlink:href="#aH"/><use transform="matrix(0.06172839506172839,0,0,0.06172839506172839,15.987654320987653,0)" xlink:href="#aP"/><use transform="matrix(0.06172839506172839,0,0,0.06172839506172839,36.913580246913575,0)" xlink:href="#aN"/></g><path d="M30 0v-248h187v28H63v79h144v27H63v87h162V0H30" id="aQ"/><g id="F"><use transform="matrix(0.06172839506172839,0,0,0.06172839506172839,0,0)" xlink:href="#aQ"/><use transform="matrix(0.06172839506172839,0,0,0.06172839506172839,14.814814814814813,0)" xlink:href="#aH"/><use transform="matrix(0.06172839506172839,0,0,0.06172839506172839,30.80246913580247,0)" xlink:href="#aQ"/></g><path d="M232-93c-1 65-40 97-104 97C67 4 28-28 28-90v-158h33c8 89-33 224 67 224 102 0 64-133 71-224h33v155" id="aR"/><path d="M143 4C61 4 22-44 18-125c-5-107 100-154 193-111 17 8 29 25 37 43l-32 9c-13-25-37-40-76-40-61 0-88 39-88 99 0 61 29 100 91 101 35 0 62-11 79-27v-45h-74v-28h105v86C228-13 192 4 143 4" id="aS"/><g id="G"><use transform="matrix(0.06172839506172839,0,0,0.06172839506172839,0,0)" xlink:href="#aR"/><use transform="matrix(0.06172839506172839,0,0,0.06172839506172839,15.987654320987653,0)" xlink:href="#aN"/><use transform="matrix(0.06172839506172839,0,0,0.06172839506172839,31.975308641975307,0)" xlink:href="#aS"/></g><g id="H"><use transform="matrix(0.06172839506172839,0,0,0.06172839506172839,0,0)" xlink:href="#ay"/><use transform="matrix(0.06172839506172839,0,0,0.06172839506172839,14.814814814814813,0)" xlink:href="#aH"/><use transform="matrix(0.06172839506172839,0,0,0.06172839506172839,30.80246913580247,0)" xlink:href="#aI"/></g><path d="M197 0v-115H63V0H30v-248h33v105h134v-105h34V0h-34" id="aT"/><g id="I"><use transform="matrix(0.06172839506172839,0,0,0.06172839506172839,0,0)" xlink:href="#am"/><use transform="matrix(0.06172839506172839,0,0,0.06172839506172839,14.814814814814813,0)" xlink:href="#ag"/><use transform="matrix(0.06172839506172839,0,0,0.06172839506172839,29.629629629629626,0)" xlink:href="#aT"/></g><path d="M127-220V0H93v-220H8v-28h204v28h-85" id="aU"/><g id="J"><use transform="matrix(0.06172839506172839,0,0,0.06172839506172839,0,0)" xlink:href="#aN"/><use transform="matrix(0.06172839506172839,0,0,0.06172839506172839,15.987654320987653,0)" xlink:href="#ag"/><use transform="matrix(0.06172839506172839,0,0,0.06172839506172839,30.80246913580247,0)" xlink:href="#aU"/></g><path d="M137-103V0h-34v-103L8-248h37l75 118 75-118h37" id="aV"/><g id="K"><use transform="matrix(0.06172839506172839,0,0,0.06172839506172839,0,0)" xlink:href="#ag"/><use transform="matrix(0.06172839506172839,0,0,0.06172839506172839,14.814814814814813,0)" xlink:href="#aV"/><use transform="matrix(0.06172839506172839,0,0,0.06172839506172839,29.629629629629626,0)" xlink:href="#au"/></g><g id="L"><use transform="matrix(0.06172839506172839,0,0,0.06172839506172839,0,0)" xlink:href="#aJ"/><use transform="matrix(0.06172839506172839,0,0,0.06172839506172839,13.518518518518517,0)" xlink:href="#aF"/><use transform="matrix(0.06172839506172839,0,0,0.06172839506172839,19.691358024691358,0)" xlink:href="#au"/></g><g id="M"><use transform="matrix(0.06172839506172839,0,0,0.06172839506172839,0,0)" xlink:href="#aP"/><use transform="matrix(0.06172839506172839,0,0,0.06172839506172839,20.925925925925924,0)" xlink:href="#aq"/><use transform="matrix(0.06172839506172839,0,0,0.06172839506172839,25.80246913580247,0)" xlink:href="#ar"/><use transform="matrix(0.06172839506172839,0,0,0.06172839506172839,38.148148148148145,0)" xlink:href="#aC"/><use transform="matrix(0.06172839506172839,0,0,0.06172839506172839,50.49382716049382,0)" xlink:href="#ah"/><use transform="matrix(0.06172839506172839,0,0,0.06172839506172839,62.8395061728395,0)" xlink:href="#aA"/></g><path d="M9 0v-24l116-142H16v-24h144v24L44-24h123V0H9" id="aW"/><g id="N"><use transform="matrix(0.06172839506172839,0,0,0.06172839506172839,0,0)" xlink:href="#ag"/><use transform="matrix(0.06172839506172839,0,0,0.06172839506172839,14.814814814814813,0)" xlink:href="#aq"/><use transform="matrix(0.06172839506172839,0,0,0.06172839506172839,19.691358024691354,0)" xlink:href="#aW"/><use transform="matrix(0.06172839506172839,0,0,0.06172839506172839,30.802469135802465,0)" xlink:href="#al"/></g><path d="M24 0v-54h51V0H24" id="aX"/><g id="O"><use transform="matrix(0.06172839506172839,0,0,0.06172839506172839,0,0)" xlink:href="#aX"/><use transform="matrix(0.06172839506172839,0,0,0.06172839506172839,6.172839506172839,0)" xlink:href="#aX"/><use transform="matrix(0.06172839506172839,0,0,0.06172839506172839,12.345679012345679,0)" xlink:href="#aX"/></g><path fill="#333" d="M136-208V0H84v-208H4v-40h212v40h-80" id="aY"/><path fill="#333" d="M67-125c0 53 21 87 73 88 37 1 54-22 65-47l45 17C233-25 199 4 140 4 58 4 20-42 15-125 8-235 124-281 211-232c18 10 29 29 36 50l-46 12c-8-25-30-41-62-41-52 0-71 34-72 86" id="aZ"/><path fill="#333" d="M24-248c93 1 206-16 204 79-1 75-69 88-152 82V0H24v-248zm52 121c47 0 100 7 100-41 0-47-54-39-100-39v80" id="ba"/><g id="P"><use transform="matrix(0.08641975308641973,0,0,0.08641975308641973,0,0)" xlink:href="#aY"/><use transform="matrix(0.08641975308641973,0,0,0.08641975308641973,18.92592592592592,0)" xlink:href="#aZ"/><use transform="matrix(0.08641975308641973,0,0,0.08641975308641973,41.30864197530863,0)" xlink:href="#ba"/></g><path fill="#333" d="M169-182c-1-43-94-46-97-3 18 66 151 10 154 114 3 95-165 93-204 36-6-8-10-19-12-30l50-8c3 46 112 56 116 5-17-69-150-10-154-114-4-87 153-88 188-35 5 8 8 18 10 28" id="bb"/><path fill="#333" d="M185-48c-13 30-37 53-82 52C43 2 14-33 14-96s30-98 90-98c62 0 83 45 84 108H66c0 31 8 55 39 56 18 0 30-7 34-22zm-45-69c5-46-57-63-70-21-2 6-4 13-4 21h74" id="bc"/><path fill="#333" d="M195-6C206 82 75 100 31 46c-4-6-6-13-8-21l49-6c3 16 16 24 34 25 40 0 42-37 40-79-11 22-30 35-61 35-53 0-70-43-70-97 0-56 18-96 73-97 30 0 46 14 59 34l2-30h47zm-90-29c32 0 41-27 41-63 0-35-9-62-40-62-32 0-39 29-40 63 0 36 9 62 39 62" id="bd"/><path fill="#333" d="M220-157c-53 9-28 100-34 157h-49v-107c1-27-5-49-29-50C55-147 81-57 75 0H25l-1-190h47c2 12-1 28 3 38 10-53 101-56 108 0 13-22 24-43 59-42 82 1 51 116 57 194h-49v-107c-1-25-5-48-29-50" id="be"/><path fill="#333" d="M135-194c87-1 58 113 63 194h-50c-7-57 23-157-34-157-59 0-34 97-39 157H25l-1-190h47c2 12-1 28 3 38 12-26 28-41 61-42" id="bf"/><path fill="#333" d="M115-3C79 11 28 4 28-45v-112H4v-33h27l15-45h31v45h36v33H77v99c-1 23 16 31 38 25v30" id="bg"/><g id="Q"><use transform="matrix(0.08641975308641973,0,0,0.08641975308641973,0,0)" xlink:href="#bb"/><use transform="matrix(0.08641975308641973,0,0,0.08641975308641973,20.740740740740737,0)" xlink:href="#bc"/><use transform="matrix(0.08641975308641973,0,0,0.08641975308641973,38.02469135802468,0)" xlink:href="#bd"/><use transform="matrix(0.08641975308641973,0,0,0.08641975308641973,56.950617283950606,0)" xlink:href="#be"/><use transform="matrix(0.08641975308641973,0,0,0.08641975308641973,84.60493827160492,0)" xlink:href="#bc"/><use transform="matrix(0.08641975308641973,0,0,0.08641975308641973,101.88888888888887,0)" xlink:href="#bf"/><use transform="matrix(0.08641975308641973,0,0,0.08641975308641973,120.8148148148148,0)" xlink:href="#bg"/></g><path fill="#333" d="M186 0v-106H76V0H24v-248h52v99h110v-99h50V0h-50" id="bh"/><path fill="#333" d="M133-34C117-15 103 5 69 4 32 3 11-16 11-54c-1-60 55-63 116-61 1-26-3-47-28-47-18 1-26 9-28 27l-52-2c7-38 36-58 82-57s74 22 75 68l1 82c-1 14 12 18 25 15v27c-30 8-71 5-69-32zm-48 3c29 0 43-24 42-57-32 0-66-3-65 30 0 17 8 27 23 27" id="bi"/><path fill="#333" d="M88-194c31-1 46 15 58 34l-1-101h50l1 261h-48c-2-10 0-23-3-31C134-8 116 4 84 4 32 4 16-41 15-95c0-56 19-97 73-99zm17 164c33 0 40-30 41-66 1-37-9-64-41-64s-38 30-39 65c0 43 13 65 39 65" id="bj"/><path fill="#333" d="M135-150c-39-12-60 13-60 57V0H25l-1-190h47c2 13-1 29 3 40 6-28 27-53 61-41v41" id="bk"/><g id="R"><use transform="matrix(0.08641975308641973,0,0,0.08641975308641973,0,0)" xlink:href="#bh"/><use transform="matrix(0.08641975308641973,0,0,0.08641975308641973,22.38271604938271,0)" xlink:href="#bc"/><use transform="matrix(0.08641975308641973,0,0,0.08641975308641973,39.66666666666666,0)" xlink:href="#bi"/><use transform="matrix(0.08641975308641973,0,0,0.08641975308641973,56.950617283950606,0)" xlink:href="#bj"/><use transform="matrix(0.08641975308641973,0,0,0.08641975308641973,75.87654320987653,0)" xlink:href="#bc"/><use transform="matrix(0.08641975308641973,0,0,0.08641975308641973,93.16049382716048,0)" xlink:href="#bk"/></g></defs></g></svg>